<?xml version="1.0" encoding="UTF-8"?>
<svg id="Calque_1" data-name="Calque 1" xmlns="http://www.w3.org/2000/svg" viewBox="0 0 326.3 398.3">
  <defs>
    <style>
      .cls-1 {
        fill: #0b0a0d;
      }

      .cls-1, .cls-2 {
        stroke-width: 0px;
      }

      .cls-2 {
        fill: #070608;
      }
    </style>
  </defs>
  <path class="cls-1" d="M162.76,370.83c-39.02,0-78.04-.03-117.06.02-8.87.01-16.64-2.44-22.81-9.09-5.07-5.46-7.43-11.96-7.49-19.33-.48-57.8,42.41-110.13,99-120.95,7.73-1.48,15.5-2.4,23.35-2.44,20.32-.1,40.71-1.34,60.93.56,36.87,3.47,66.54,20.66,88.55,50.45,15.75,21.32,23.34,45.53,23.69,72.04.2,14.97-11.38,28.93-29.96,28.81-35.9-.23-71.81-.07-107.71-.07-3.49,0-6.98,0-10.47,0ZM162.96,346.58c11.59,0,23.18,0,34.77,0,27.67,0,55.34,0,83.01,0,5.23,0,5.92-.76,5.93-6.1,0-6.5-.95-12.88-2.27-19.23-9.22-44.23-49.89-77.66-95.08-78.02-16.82-.13-33.65,0-50.48-.06-7.13-.03-14.13.84-21.1,2.28-44.18,9.16-77.78,50.02-78.1,95.02-.04,5.46.62,6.1,6.28,6.1,39.01,0,78.02,0,117.03,0Z"/>
  <path class="cls-2" d="M163.22,27.4c50.85.15,92.22,41.54,91.84,92.26-.4,52.69-43.79,92.17-93.3,91.53-49.75-.64-90.81-42.11-90.57-92.43.24-50.32,41.73-91.51,92.03-91.36ZM95.47,119.06c-.21,37.21,29.98,67.76,67.26,68.07,37.33.31,67.8-29.95,68.1-67.6.29-37.09-29.84-67.67-66.88-67.88-37.97-.22-68.26,29.6-68.48,67.41Z"/>
</svg>