<svg width="20" height="21" viewBox="0 0 20 21" fill="none" xmlns="http://www.w3.org/2000/svg">
<g clip-path="url(#clip0_3_9)">
<path d="M17.45 7.16667C17.0333 3.425 13.85 0.5 10 0.5C6.15001 0.5 2.96667 3.425 2.55 7.16667H-0.0166626L1.58334 18.35C1.75834 19.575 2.825 20.5 4.05834 20.5H15.95C17.1833 20.5 18.25 19.575 18.425 18.35L20.025 7.16667H17.4583H17.45ZM10 2.16667C12.9333 2.16667 15.3583 4.34167 15.7667 7.16667H4.23334C4.64167 4.34167 7.06667 2.16667 10 2.16667ZM16.7667 18.1167C16.7083 18.525 16.35 18.8333 15.9417 18.8333H4.05834C3.65 18.8333 3.29167 18.525 3.23334 18.1167L1.90834 8.83333H18.0917L16.7667 18.1167Z" fill="white"/>
</g>
<defs>
<clipPath id="clip0_3_9">
<rect width="20" height="20" fill="white" transform="translate(0 0.5)"/>
</clipPath>
</defs>
</svg>
