<svg width="17" height="17" viewBox="0 0 17 17" fill="none" xmlns="http://www.w3.org/2000/svg">
<g clip-path="url(#clip0_16_744)">
<path d="M3.07145 1.92855L1.65724 3.34276C0.747429 4.25257 0.747429 5.73278 1.65724 6.64259L9.67112 14.6565C10.5809 15.5663 12.0611 15.5663 12.9709 14.6565L14.3852 13.2423C15.295 12.3324 15.295 10.8522 14.3852 9.94242L6.37128 1.92855C5.46147 1.01874 3.98126 1.01874 3.07145 1.92855ZM13.9138 12.7709L12.4995 14.1851C11.8495 14.8351 10.7926 14.8351 10.1425 14.1851L2.12864 6.17119C1.47858 5.52112 1.47858 4.46423 2.12864 3.81416L3.54286 2.39995C4.19292 1.74988 5.24981 1.74988 5.89988 2.39995L6.13558 2.63565L4.95707 3.81416C4.82696 3.94427 4.82696 4.15546 4.95707 4.28557C5.08718 4.41568 5.29837 4.41568 5.42848 4.28557L6.60699 3.10706L8.49261 4.99268L7.31409 6.17119C7.18399 6.30129 7.18399 6.51248 7.31409 6.64259C7.4442 6.7727 7.65539 6.7727 7.7855 6.64259L8.96401 5.46408L10.8496 7.3497L9.67112 8.52821C9.54101 8.65832 9.54101 8.86951 9.67112 8.99961C9.80122 9.12972 10.0124 9.12972 10.1425 8.99961L11.321 7.8211L13.2067 9.70672L12.0281 10.8852C11.898 11.0153 11.898 11.2265 12.0281 11.3566C12.1582 11.4867 12.3694 11.4867 12.4995 11.3566L13.6781 10.1781L13.9138 10.4138C14.5638 11.0639 14.5638 12.1208 13.9138 12.7709Z" fill="white"/>
</g>
<defs>
<clipPath id="clip0_16_744">
<rect width="6.6875" height="16" fill="white" transform="translate(0 5) rotate(-45)"/>
</clipPath>
</defs>
</svg>
