<svg width="19" height="20" viewBox="0 0 19 20" fill="none" xmlns="http://www.w3.org/2000/svg">
<g clip-path="url(#clip0_8_19)">
<path d="M18.7679 18.1492L14.0424 13.4237C15.3302 11.8488 15.9633 9.83913 15.8109 7.81046C15.6584 5.78179 14.7321 3.88931 13.2235 2.52447C11.7149 1.15963 9.73938 0.42685 7.70563 0.4777C5.67188 0.52855 3.73547 1.35914 2.29694 2.79767C0.858408 4.2362 0.0278175 6.17261 -0.0230327 8.20636C-0.0738829 10.2401 0.658898 12.2156 2.02374 13.7242C3.38858 15.2329 5.28106 16.1592 7.30973 16.3116C9.3384 16.464 11.3481 15.8309 12.923 14.5431L17.6485 19.2686C17.7978 19.4128 17.9977 19.4926 18.2053 19.4908C18.4129 19.489 18.6114 19.4057 18.7582 19.259C18.905 19.1122 18.9883 18.9136 18.9901 18.706C18.9919 18.4985 18.9121 18.2985 18.7679 18.1492ZM7.91649 14.7506C6.66388 14.7506 5.43939 14.3791 4.39788 13.6832C3.35637 12.9873 2.54461 11.9982 2.06526 10.8409C1.5859 9.68362 1.46048 8.4102 1.70485 7.18165C1.94923 5.95311 2.55242 4.82462 3.43815 3.93888C4.32388 3.05315 5.45238 2.44996 6.68092 2.20559C7.90947 1.96121 9.18289 2.08663 10.3402 2.56599C11.4974 3.04534 12.4866 3.8571 13.1825 4.89861C13.8784 5.94013 14.2498 7.16461 14.2498 8.41723C14.2479 10.0964 13.5801 11.7062 12.3928 12.8935C11.2054 14.0808 9.59562 14.7487 7.91649 14.7506Z" fill="white"/>
</g>
<defs>
<clipPath id="clip0_8_19">
<rect width="19" height="19" fill="white" transform="translate(0 0.5)"/>
</clipPath>
</defs>
</svg>
