<svg width="236" height="181" viewBox="0 0 236 181" fill="none" xmlns="http://www.w3.org/2000/svg">
<g clip-path="url(#clip0_541_3913)">
<path d="M77.9046 26.7477L92.979 34.7755L73.7444 52.5908L69.4129 50.2814L74.1971 45.2228C67.7734 47.41 62.4997 46.5913 58.7311 44.5874C50.423 40.0908 47.2295 33.0771 59.9425 21.3591L62.3896 19.0986C75.0536 7.31945 85.5397 7.58827 93.9089 12.0115C101.605 16.1171 104.774 22.4221 95.4139 32.515L86.2126 27.6152C86.7877 26.2833 86.751 25.1714 86.127 24.255C85.503 23.3386 84.5486 22.5443 83.2761 21.8601C79.6543 20.0394 75.6532 19.3552 70.2327 24.4505L69.4129 25.2081C63.8457 30.2912 65.9013 32.7716 69.3762 34.7267C72.79 36.5473 75.2739 37.4271 79.1281 35.7653L72.166 32.0507L77.9046 26.7354V26.7477Z" fill="#0F2A3F"/>
<path d="M73.744 61.8039C72.2635 61.8039 70.7708 61.4495 69.4126 60.7164L65.0811 58.407C63.674 57.6494 62.4994 56.5619 61.6673 55.2545C59.1101 54.7779 56.6752 53.9226 54.4115 52.7129C45.4427 47.8498 42.9222 41.6547 42.3838 37.2926C41.4539 29.9123 45.1613 22.4831 53.7141 14.6019L56.149 12.3536C73.536 -3.82437 88.635 -1.18507 98.2278 3.89804C106.83 8.48016 109.46 14.3942 110.158 18.5486C111.259 25.0858 108.579 31.8795 102.192 38.7711C101.642 39.3576 101.03 39.8708 100.369 40.2862C100.039 40.7261 99.6594 41.1415 99.2556 41.5325L80.021 59.3478C78.2713 60.9608 76.0321 61.8039 73.7563 61.8039H73.744Z" fill="#0F2A3F"/>
<path d="M120.705 27.4928L97.7992 48.705L115.125 57.9303L104.492 67.7788L78.5156 53.9347L112.042 22.874L120.692 27.4806L120.705 27.4928Z" fill="#0F2A3F"/>
<path d="M104.492 76.9796C103.012 76.9796 101.519 76.6252 100.161 75.8921L74.1844 62.048C71.5537 60.6428 69.7673 58.0646 69.388 55.1198C69.0087 52.175 70.0732 49.218 72.2634 47.1897L105.789 16.129C108.677 13.4652 112.923 12.9154 116.386 14.7605L125.036 19.367C127.667 20.7722 129.453 23.3504 129.833 26.2952C130.212 29.24 129.147 32.197 126.957 34.2253L113.535 46.652L119.444 49.8045C122.075 51.2097 123.862 53.7879 124.241 56.7327C124.62 59.6775 123.556 62.6345 121.365 64.6628L110.733 74.5114C108.983 76.1243 106.744 76.9674 104.468 76.9674L104.492 76.9796Z" fill="#0F2A3F"/>
<path d="M153.435 67.608L150.988 69.8685C138.349 81.6232 127.838 81.3788 119.481 76.9556C111.149 72.4834 107.979 65.4453 120.692 53.7272L123.14 51.4667C135.804 39.6876 146.29 39.9564 154.659 44.3797C163.016 48.8274 166.112 55.8656 153.435 67.608ZM143.989 63.7468C149.508 58.7126 147.501 56.1833 144.038 54.2404C140.416 52.4198 136.415 51.7355 130.995 56.8309L130.175 57.5884C124.632 62.6471 126.639 65.1764 130.114 67.1315C133.724 68.9399 137.725 69.6242 143.17 64.5166L143.989 63.759V63.7468Z" fill="#0F2A3F"/>
<path d="M130.236 88.9909C124.375 88.9909 119.273 87.2681 115.186 85.1053C106.205 80.2788 103.672 74.0838 103.121 69.7216C102.179 62.3291 105.887 54.8877 114.452 46.982L116.887 44.7337C134.286 28.5436 149.385 31.1951 158.978 36.266C167.922 41.0314 170.467 47.2142 171.03 51.5642C171.984 58.9689 168.289 66.4225 159.712 74.3648L157.265 76.6253C147.293 85.8995 138.091 88.9909 130.236 88.9909Z" fill="#0F2A3F"/>
<path d="M207.798 73.9735L217.538 79.1666L174.26 105.034L163.969 99.5479L175.863 81.4271L154.23 94.3548L143.939 88.8685L167.726 52.627L177.465 57.82L161.363 80.2175L187.743 63.2941L197.483 68.4872L181.381 90.8846L207.761 73.9613L207.798 73.9735Z" fill="#0F2A3F"/>
<path d="M174.26 114.223C172.767 114.223 171.287 113.869 169.929 113.136L159.638 107.649C157.864 106.709 156.469 105.218 155.637 103.434C153.692 103.727 151.685 103.409 149.899 102.456L139.608 96.9701C137.32 95.7482 135.656 93.6343 135.02 91.1294C134.384 88.6245 134.824 85.973 136.243 83.8102L160.03 47.5687C162.636 43.5853 167.861 42.2534 172.07 44.5017L181.809 49.6948C183.694 50.6967 185.162 52.3219 185.97 54.2647C188.025 53.8615 190.191 54.1547 192.088 55.1689L201.827 60.362C203.711 61.3639 205.18 62.989 205.987 64.9319C208.043 64.5286 210.209 64.8219 212.105 65.8361L221.845 71.0291C224.769 72.5932 226.641 75.599 226.715 78.9226C226.788 82.2462 225.087 85.3376 222.236 87.036L178.959 112.904C177.502 113.771 175.863 114.211 174.223 114.211L174.26 114.223Z" fill="#0F2A3F"/>
<path d="M39.3245 60.1913C45.0386 63.9303 53.0897 69.1722 44.6715 76.9435C35.0909 85.8145 25.5592 84.0427 17.765 79.9005C10.0076 75.7338 4.97868 70.9806 14.5593 60.9L23.626 65.7265C22.0231 68.659 23.6382 70.5041 26.3546 71.9459C29.0464 73.3756 33.023 74.5119 35.617 72.117C37.0853 70.7485 34.6259 69.1111 31.3835 67.0217C25.6694 63.2827 17.6182 58.0407 26.012 50.2939C35.5926 41.4229 45.1487 43.1702 52.9429 47.3124C60.6391 51.528 65.7782 56.1956 56.1242 66.3374L47.0575 61.5109C48.7093 58.5295 47.0452 56.7333 44.3289 55.2914C41.637 53.8618 37.7338 52.6521 35.0664 55.1204C33.5981 56.4889 36.082 58.1018 39.3245 60.1913Z" fill="#0F2A3F"/>
<path d="M29.9763 92.5591C25.0453 92.5591 19.5148 91.2639 13.4213 88.0259C9.88521 86.1319 1.68725 81.7209 0.292374 73.0087C-1.13921 64.0522 5.6394 56.9163 7.86631 54.5703C9.53037 52.823 11.7695 51.8454 14.0576 51.7232C14.963 49.1695 16.6883 46.3713 19.735 43.5487C27.3334 36.5106 40.0341 30.0345 57.2621 39.211C61.153 41.3371 69.0573 45.6626 70.4033 54.3014C71.7982 63.2091 65.0195 70.345 62.7804 72.6788C61.1163 74.4261 58.8894 75.4037 56.6013 75.5258C55.6837 78.0796 53.9584 80.8778 50.9117 83.7004C46.0052 88.2458 38.9696 92.5469 29.9641 92.5469L29.9763 92.5591ZM43.5336 53.7638L39.3245 60.191L43.5458 53.8127C43.5458 53.8127 43.5458 53.7883 43.5336 53.7638Z" fill="#0F2A3F"/>
<path d="M90.813 68.7812C95.4626 71.1517 93.5293 78.6053 86.5305 84.9836C79.6907 91.423 69.9388 94.7832 65.4727 92.2539L52.7475 85.4723L44.5618 93.0481L35.9111 88.4415L69.4371 57.3809L90.8252 68.769L90.813 68.7812ZM73.1323 82.0021C73.6462 82.271 74.3681 82.2587 75.2736 81.941C76.179 81.6233 77.0845 81.0857 77.8553 80.3648C78.6262 79.6439 79.1401 78.9107 79.3114 78.1898C79.5194 77.4689 79.3481 76.9679 78.8342 76.6991L68.2625 71.0661L62.5484 76.357L73.1201 81.9899L73.1323 82.0021Z" fill="#0F2A3F"/>
<path d="M69.3023 102.322C66.3657 102.322 63.5515 101.711 61.0554 100.33L54.1911 96.677L50.8141 99.805C47.9264 102.469 43.6806 103.019 40.2179 101.174L31.5672 96.567C28.9365 95.1618 27.1501 92.5836 26.7708 89.6388C26.3915 86.6941 27.456 83.7371 29.6462 81.7087L63.1844 50.6602C66.072 47.9965 70.3179 47.4466 73.7806 49.2917L95.1075 60.6554C99.1453 62.757 101.825 66.5571 102.437 71.1026C103.342 77.8108 99.8183 85.35 92.7582 91.8016C86.4201 97.7522 77.3779 102.347 69.3145 102.347L69.3023 102.322ZM77.4635 73.8763H77.4758C77.4758 73.8763 77.4758 73.8763 77.4635 73.8763Z" fill="#0F2A3F"/>
<path d="M88.1698 99.5123L76.7171 110.118L68.0664 105.512L101.592 74.4512L110.243 79.0577L98.7904 89.6638L111.785 96.592L123.237 85.9859L131.9 90.6047L98.3744 121.665L89.7115 117.047L101.164 106.441L88.1698 99.5123Z" fill="#0F2A3F"/>
<path d="M98.3863 130.854C96.9058 130.854 95.413 130.5 94.0549 129.766L85.392 125.148C82.8347 123.779 81.0727 121.299 80.6322 118.452C78.0505 119.649 75.0038 119.612 72.3976 118.232L63.7469 113.625C61.1162 112.22 59.3298 109.642 58.9505 106.697C58.5712 103.752 59.6357 100.795 61.8259 98.7668L95.3641 67.7061C98.2517 65.0424 102.498 64.4925 105.96 66.3376L114.611 70.9442C117.168 72.3127 118.93 74.7932 119.371 77.6524C121.952 76.4549 124.999 76.4916 127.605 77.8723L136.268 82.4911C138.899 83.8963 140.685 86.4745 141.065 89.4193C141.444 92.3641 140.379 95.3211 138.189 97.3494L104.651 128.398C102.901 130.011 100.662 130.854 98.3863 130.854Z" fill="#0F2A3F"/>
<path d="M136.905 93.3286L162.881 107.173L154.304 115.127L136.978 105.902L132.684 109.873L150.009 119.098L142.252 126.283L124.926 117.058L120.631 121.029L137.957 130.254L129.355 138.221L103.379 124.377L136.905 93.3164V93.3286Z" fill="#0F2A3F"/>
<path d="M129.343 147.422C127.862 147.422 126.37 147.068 125.011 146.334L99.035 132.49C96.4043 131.085 94.6179 128.507 94.2386 125.562C93.8593 122.617 94.9238 119.66 97.114 117.632L130.64 86.5714C133.528 83.9076 137.773 83.3578 141.236 85.2028L167.213 99.047C169.843 100.452 171.63 103.03 172.009 105.975C172.388 108.92 171.324 111.877 169.134 113.905L160.556 121.86C159.81 122.544 158.978 123.094 158.085 123.497C157.62 124.353 157.008 125.147 156.262 125.831L148.504 133.016C147.758 133.7 146.926 134.25 146.033 134.653C145.568 135.521 144.956 136.303 144.209 136.987L135.608 144.954C133.858 146.567 131.619 147.41 129.343 147.41V147.422Z" fill="#0F2A3F"/>
<path d="M188.87 120.98C193.52 123.351 191.586 130.804 184.588 137.183C182.067 139.517 179.326 141.411 176.39 142.828C173.49 144.233 170.773 145.04 168.302 145.211L163.738 156.501L154.524 151.589L158.525 141.789L150.792 137.672L142.607 145.247L133.956 140.641L167.482 109.58L188.87 120.968V120.98ZM166.332 123.278L160.618 128.568L171.165 134.189C171.691 134.47 172.413 134.458 173.331 134.14C174.248 133.823 175.142 133.285 175.912 132.564C177.503 131.086 177.944 129.46 176.879 128.898L166.332 123.278Z" fill="#0F2A3F"/>
<path d="M163.725 165.714C162.233 165.714 160.74 165.348 159.394 164.627L150.18 159.715C147.843 158.469 146.253 156.343 145.616 153.948C143.243 154.766 140.588 154.595 138.287 153.361L129.637 148.755C127.006 147.349 125.219 144.771 124.84 141.826C124.461 138.882 125.525 135.925 127.716 133.896L161.254 102.848C164.141 100.184 168.387 99.6341 171.85 101.479L193.177 112.843C197.215 114.945 199.882 118.745 200.506 123.29C201.412 129.998 197.888 137.537 190.828 143.989C187.695 146.885 184.184 149.304 180.427 151.113C178.592 152.005 176.781 152.713 175.007 153.251L172.29 159.947C171.312 162.366 169.354 164.26 166.894 165.152C165.879 165.519 164.814 165.702 163.75 165.702L163.725 165.714Z" fill="#0F2A3F"/>
<path d="M199.907 126.907L225.883 140.751L217.306 148.705L199.98 139.48L195.686 143.451L213.011 152.677L205.254 159.861L187.928 150.636L183.633 154.607L200.959 163.833L192.357 171.799L166.381 157.955L199.907 126.895V126.907Z" fill="#0F2A3F"/>
<path d="M192.345 181.001C190.864 181.001 189.372 180.646 188.013 179.913L162.037 166.069C159.406 164.664 157.62 162.086 157.241 159.141C156.861 156.196 157.926 153.239 160.116 151.211L193.654 120.162C196.542 117.498 200.788 116.949 204.25 118.794L230.227 132.638C232.858 134.043 234.644 136.621 235.023 139.566C235.403 142.511 234.338 145.468 232.148 147.496L223.571 155.438C222.824 156.123 221.992 156.673 221.099 157.076C220.634 157.943 220.022 158.725 219.276 159.41L211.518 166.594C210.772 167.279 209.94 167.828 209.047 168.232C208.582 169.099 207.97 169.881 207.224 170.566L198.622 178.532C196.872 180.145 194.633 180.988 192.357 180.988L192.345 181.001Z" fill="#0F2A3F"/>
<path d="M75.3343 25.0611L90.4087 33.089L71.1741 50.9043L66.8426 48.5949L71.6268 43.5363C65.203 45.7235 59.9294 44.9048 56.1608 42.9009C47.8527 38.4043 44.6592 31.3906 57.3722 19.6726L59.8193 17.412C72.4833 5.63293 82.9694 5.90175 91.3386 10.325C99.0349 14.4306 102.204 20.7356 92.8436 30.8285L83.6423 25.9287C84.2174 24.5968 84.1807 23.4849 83.5567 22.5685C82.9327 21.652 81.9783 20.8578 80.7057 20.1735C77.084 18.3529 73.0829 17.6686 67.6624 22.764L66.8426 23.5215C61.2754 28.6046 63.331 31.0851 66.8059 33.0401C70.2197 34.8608 72.7036 35.7405 76.5578 34.0788L69.5957 30.3642L75.3343 25.0489V25.0611Z" fill="#BDCF2D"/>
<path d="M118.122 25.8063L95.2171 47.0185L112.543 56.2438L101.91 66.0923L75.9336 52.2482L109.46 21.1875L118.11 25.7941L118.122 25.8063Z" fill="#BDCF2D"/>
<path d="M150.853 65.9215L148.406 68.182C135.767 79.9367 125.256 79.6923 116.899 75.269C108.566 70.7969 105.397 63.7587 118.11 52.0407L120.558 49.7802C133.222 38.0011 143.708 38.2699 152.077 42.6932C160.434 47.1409 163.53 54.179 150.853 65.9215ZM141.407 62.0603C146.926 57.0261 144.919 54.4967 141.456 52.5539C137.834 50.7333 133.833 50.049 128.413 55.1443L127.593 55.9019C122.05 60.9606 124.057 63.4899 127.532 65.445C131.141 67.2534 135.143 67.9376 140.587 62.8301L141.407 62.0725V62.0603Z" fill="#BDCF2D"/>
<path d="M205.217 72.288L214.957 77.4811L171.679 103.349L161.388 97.8624L173.281 79.7416L151.649 92.6693L141.358 87.1829L165.145 50.9414L174.884 56.1345L158.782 78.5319L185.162 61.6086L194.902 66.8017L178.8 89.1991L205.18 72.2758L205.217 72.288Z" fill="#BDCF2D"/>
<path d="M39.3245 58.2479C45.0386 61.9869 53.0897 67.2289 44.6715 75.0001C35.0909 83.8711 25.5592 82.0994 17.765 77.9571C10.0076 73.7905 4.97868 69.0373 14.5593 58.9566L23.626 63.7831C22.0231 66.7157 23.6382 68.5607 26.3546 70.0026C29.0464 71.4322 33.023 72.5686 35.617 70.1736C37.0853 68.8051 34.6259 67.1678 31.3835 65.0783C25.6694 61.3393 17.6182 56.0974 26.012 48.3505C35.5926 39.4795 45.1487 41.2268 52.9429 45.3691C60.6391 49.5846 65.7782 54.2523 56.1242 64.3941L47.0575 59.5676C48.7093 56.5861 47.0452 54.7899 44.3289 53.3481C41.6125 51.9062 37.7338 50.7088 35.0664 53.177C33.5981 54.5455 36.082 56.1585 39.3245 58.2479Z" fill="#BDCF2D"/>
<path d="M90.813 66.8261C95.4626 69.1966 93.5293 76.6502 86.5305 83.0285C79.6907 89.4679 69.9388 92.8281 65.4727 90.2988L52.7475 83.5173L44.5618 91.093L35.9111 86.4865L69.4371 55.4258L90.8252 66.8139L90.813 66.8261ZM73.1323 80.0471C73.6462 80.3159 74.3681 80.3037 75.2736 79.986C76.179 79.6683 77.0845 79.1306 77.8553 78.4097C78.6262 77.6888 79.1401 76.9557 79.3114 76.2347C79.5194 75.5138 79.3481 75.0128 78.8342 74.744L68.2625 69.1111L62.5484 74.4019L73.1201 80.0348L73.1323 80.0471Z" fill="#BDCF2D"/>
<path d="M88.1698 97.5563L76.7171 108.162L68.0664 103.556L101.592 72.4951L110.243 77.1017L98.7904 87.7078L111.785 94.6359L123.237 84.0298L131.9 88.6486L98.3744 119.709L89.7115 115.091L101.164 104.484L88.1698 97.5563Z" fill="#BDCF2D"/>
<path d="M136.905 91.3735L162.881 105.218L154.304 113.172L136.978 103.947L132.684 107.918L150.009 117.143L142.252 124.328L124.926 115.103L120.631 119.074L137.957 128.299L129.355 136.266L103.379 122.422L136.905 91.3613V91.3735Z" fill="#BDCF2D"/>
<path d="M188.87 119.037C193.52 121.408 191.586 128.861 184.588 135.239C182.067 137.573 179.326 139.467 176.39 140.885C173.49 142.29 170.773 143.096 168.302 143.267L163.738 154.558L154.524 149.646L158.525 139.846L150.792 135.728L142.607 143.304L133.956 138.697L167.482 107.637L188.87 119.025V119.037ZM166.332 121.334L160.618 126.625L171.165 132.246C171.691 132.527 172.413 132.515 173.331 132.197C174.248 131.879 175.142 131.342 175.912 130.621C177.503 129.142 177.944 127.517 176.879 126.955L166.332 121.334Z" fill="#BDCF2D"/>
<path d="M199.907 124.952L225.883 138.796L217.306 146.75L199.98 137.525L195.686 141.496L213.011 150.722L205.254 157.906L187.928 148.681L183.633 152.652L200.959 161.877L192.357 169.844L166.381 156L199.907 124.939V124.952Z" fill="#BDCF2D"/>
</g>
<defs>
<clipPath id="clip0_541_3913">
<rect width="235" height="181" fill="white" transform="translate(0.0966797)"/>
</clipPath>
</defs>
</svg>
