<svg width="64" height="64" viewBox="0 0 64 64" fill="none" xmlns="http://www.w3.org/2000/svg">
<g clip-path="url(#clip0_8_281)">
<path d="M26.6667 6.66667C26.6667 2.984 29.6507 0 33.3333 0C37.016 0 40 2.984 40 6.66667C40 10.3493 37.016 13.3333 33.3333 13.3333C29.6507 13.3333 26.6667 10.3493 26.6667 6.66667ZM55.72 36.6507C55.2507 37.5867 54.312 38.1253 53.3307 38.1253C52.9307 38.1253 52.5227 38.0347 52.1413 37.8453L44.5627 34.056C42.8187 33.184 41.344 31.8507 40.304 30.1973L38.9867 28.1067L35.232 42.2293L38.6187 44.152C41.1173 45.5733 42.6667 48.2373 42.6667 51.1093V61.3387C42.6667 62.8107 41.4747 64.0053 40 64.0053C38.5253 64.0053 37.3333 62.8107 37.3333 61.3387V51.1093C37.3333 50.152 36.816 49.264 35.984 48.7893L25.3787 42.768C22.3173 41.0293 20.7387 37.4187 21.5413 33.9893L24.2773 22.296C23.7253 22.4987 23.184 22.728 22.6587 22.9893L17.0667 25.7867C16.3813 26.128 15.8773 26.7467 15.6827 27.488L13.5947 35.3573C13.216 36.7813 11.7573 37.624 10.3333 37.2507C8.90933 36.872 8.06133 35.4133 8.44 33.9893L10.528 26.12C11.1173 23.9013 12.632 22.04 14.6853 21.016L20.2747 18.2187C23.1733 16.7707 26.416 16.0053 29.656 16.0053H32C37.3493 16.0053 40.728 20.8827 40.872 21.0907L44.8187 27.36C45.336 28.1867 46.072 28.8533 46.944 29.288L54.5253 33.08C55.8427 33.7387 56.376 35.3413 55.7173 36.6587L55.72 36.6507ZM30.552 39.5653L34.9973 22.5813C34.2107 21.9467 33.1627 21.336 32 21.336H29.9787L26.7333 35.2027C26.4667 36.344 26.992 37.5467 28.0133 38.128L30.5493 39.568L30.552 39.5653ZM24.5093 47.6427C24.488 47.6293 24.4667 47.616 24.4453 47.6053C22.9307 46.6987 20.968 47.528 20.568 49.248L20.16 51.0107L15.8667 60.216C15.0453 61.9787 16.3307 64 18.2773 64C19.3067 64 20.2453 63.4053 20.6853 62.472L25.096 53.1013L25.704 50.4533C25.9573 49.3547 25.4747 48.2187 24.5067 47.64L24.5093 47.6427Z" fill="#8FBF37"/>
</g>
<defs>
<clipPath id="clip0_8_281">
<rect width="64" height="64" fill="white"/>
</clipPath>
</defs>
</svg>
