<?xml version="1.0" encoding="utf-8"?>
<!-- Generator: Adobe Illustrator 28.3.0, SVG Export Plug-In . SVG Version: 6.00 Build 0)  -->
<svg version="1.1" id="Layer_1" xmlns="http://www.w3.org/2000/svg" xmlns:xlink="http://www.w3.org/1999/xlink" x="0px" y="0px"
	 viewBox="0 0 2122 2122" style="enable-background:new 0 0 2122 2122;" xml:space="preserve">
<style type="text/css">
	.st0{fill:#8FBF37;}
</style>
<path class="st0" d="M1064.5,1653.4c-8.7,0-17.4-2.3-25.2-6.8c-329.2-190.9-454.3-464.6-501.2-660.5
	c-50.7-211.8-23.8-377.7-22.6-384.6c2.8-16.6,13.8-30.7,29.2-37.6c5-2.2,125-54.5,312.8-80.9c172.9-24.3,439-30.1,724.6,80
	c15.8,6.1,27.4,19.7,31,36.2c3.6,16.5-1.4,33.7-13.3,45.8l-527.5,535.7c-9.4,9.5-22.2,14.9-35.5,15c-0.1,0-0.1,0-0.2,0
	c-13.3,0-26.1-5.3-35.5-14.7l-169.4-169.4c-19.6-19.6-19.6-51.3,0-70.9c19.6-19.6,51.3-19.6,70.9,0l133.6,133.6L1472.8,631
	c-407.2-129.5-764.3-20.6-861.6,14.7c-4.8,52.8-10,176,25.4,321c60.1,246.3,203.9,440.7,427.9,578.2
	c328.1-201.6,426.2-492.7,450.2-703.9c3.1-27.5,28-47.3,55.5-44.2c27.5,3.1,47.3,28,44.2,55.5c-27.2,239.4-140.4,571.5-524.7,794.4
	C1081.9,1651.2,1073.2,1653.4,1064.5,1653.4z"/>
</svg>
