<?xml version="1.0" encoding="UTF-8"?>
<svg id="Calque_1" data-name="Calque 1" xmlns="http://www.w3.org/2000/svg" viewBox="0 0 127.03 127.03">
  <defs>
    <style>
      .cls-1 {
        fill: #050507;
        stroke-width: 0px;
      }
    </style>
  </defs>
  <path class="cls-1" d="M12.98,115.51c-.31-.44.17-.58.34-.78,12.66-14.73,25.32-29.44,37.99-44.15,1.06-1.23,1.07-1.23.12-2.6C38.76,49.53,26.08,31.09,13.4,12.64c-.22-.32-.43-.65-.72-1.11.44,0,.73,0,1.02,0,9.48,0,18.96,0,28.43-.02.65,0,1.02.19,1.39.73,8.32,12.15,16.67,24.28,25.01,36.41.73,1.06.73,1.06,1.6.06,10.48-12.18,20.97-24.35,31.43-36.54.38-.45.74-.66,1.35-.66,2.67.04,5.35.02,8.23.02-.44.52-.78.94-1.13,1.35-12.05,14-24.09,28.01-36.16,41.99-.52.6-.42.94-.03,1.51,13.29,19.31,26.56,38.62,39.83,57.94.26.38.63.71.7,1.2h-30.27c-.03-.06-.05-.12-.09-.18-9.06-13.18-18.12-26.37-27.18-39.55-.12-.18-.21-.43-.51-.48-4.27,4.96-8.55,9.93-12.83,14.9-7.25,8.43-14.5,16.87-21.76,25.31h-8.74ZM102.08,109.03c-.21-.32-.29-.47-.39-.6-7.04-10.07-14.09-20.14-21.13-30.21-13.78-19.7-27.57-39.4-41.33-59.11-.43-.61-.86-.81-1.57-.8-2.98.03-5.96.01-8.94.01h-3.77c.33.48.55.81.78,1.14,20.15,28.82,40.3,57.63,60.44,86.45.72,1.02,1.25,2.37,2.23,2.96,1.03.61,2.5.16,3.78.17,3.24.02,6.48,0,9.89,0Z"/>
</svg>